<mxfile host="app.diagrams.net" agent="Mozilla/5.0 (Macintosh; Intel Mac OS X 10_15_7) AppleWebKit/537.36 (KHTML, like Gecko) Chrome/129.0.0.0 Safari/537.36" version="24.7.16">
  <diagram name="ページ1" id="5Ppg34Q_J_wkcTA9Yfi0">
    <mxGraphModel dx="466" dy="1065" grid="0" gridSize="10" guides="1" tooltips="1" connect="1" arrows="1" fold="1" page="0" pageScale="1" pageWidth="827" pageHeight="1169" math="0" shadow="0">
      <root>
        <mxCell id="0" />
        <mxCell id="1" parent="0" />
        <mxCell id="wnx1RE_d3P76iOob-3O8-1" value="" style="rounded=0;whiteSpace=wrap;html=1;" parent="1" vertex="1">
          <mxGeometry x="106" y="-4" width="120" height="60" as="geometry" />
        </mxCell>
        <mxCell id="wnx1RE_d3P76iOob-3O8-2" value="" style="rounded=0;whiteSpace=wrap;html=1;" parent="1" vertex="1">
          <mxGeometry x="106" y="124" width="120" height="60" as="geometry" />
        </mxCell>
        <mxCell id="wnx1RE_d3P76iOob-3O8-4" value="" style="rounded=0;whiteSpace=wrap;html=1;" parent="1" vertex="1">
          <mxGeometry x="185" y="237" width="120" height="60" as="geometry" />
        </mxCell>
        <mxCell id="wnx1RE_d3P76iOob-3O8-5" value="" style="rounded=0;whiteSpace=wrap;html=1;" parent="1" vertex="1">
          <mxGeometry x="28" y="237" width="120" height="60" as="geometry" />
        </mxCell>
        <mxCell id="wnx1RE_d3P76iOob-3O8-7" value="" style="rounded=0;whiteSpace=wrap;html=1;" parent="1" vertex="1">
          <mxGeometry x="106" y="343" width="120" height="60" as="geometry" />
        </mxCell>
        <mxCell id="wnx1RE_d3P76iOob-3O8-8" value="" style="rounded=0;whiteSpace=wrap;html=1;" parent="1" vertex="1">
          <mxGeometry x="106" y="449" width="120" height="60" as="geometry" />
        </mxCell>
        <mxCell id="wnx1RE_d3P76iOob-3O8-9" value="" style="rounded=0;whiteSpace=wrap;html=1;" parent="1" vertex="1">
          <mxGeometry x="106" y="555" width="120" height="60" as="geometry" />
        </mxCell>
        <mxCell id="wnx1RE_d3P76iOob-3O8-13" value="" style="shape=singleArrow;whiteSpace=wrap;html=1;arrowWidth=0.4;arrowSize=0.4;rotation=90;" parent="1" vertex="1">
          <mxGeometry x="140.75" y="72" width="50.5" height="37" as="geometry" />
        </mxCell>
      </root>
    </mxGraphModel>
  </diagram>
</mxfile>
